<mxfile host="app.diagrams.net" agent="Mozilla/5.0 (Windows NT 10.0; Win64; x64; rv:135.0) Gecko/20100101 Firefox/135.0" version="26.0.16">
  <diagram name="Page-1" id="3_q_bGE4Z-Se7FsiGyFn">
    <mxGraphModel dx="989" dy="520" grid="0" gridSize="18" guides="1" tooltips="1" connect="1" arrows="1" fold="1" page="1" pageScale="1" pageWidth="225" pageHeight="300" background="#FFFFFF" math="0" shadow="0">
      <root>
        <mxCell id="0" />
        <mxCell id="1" parent="0" />
        <mxCell id="TFH7p9IeiASmlbd_Yw0B-1" value="EVENT NAME" style="rounded=0;whiteSpace=wrap;html=1;strokeColor=none;" parent="1" vertex="1">
          <mxGeometry width="225" height="50" as="geometry" />
        </mxCell>
        <mxCell id="TFH7p9IeiASmlbd_Yw0B-2" value="" style="shape=table;startSize=0;container=1;collapsible=0;childLayout=tableLayout;fontSize=16;strokeColor=none;" parent="1" vertex="1">
          <mxGeometry x="7" y="56" width="211" height="180" as="geometry" />
        </mxCell>
        <mxCell id="TFH7p9IeiASmlbd_Yw0B-3" value="" style="shape=tableRow;horizontal=0;startSize=0;swimlaneHead=0;swimlaneBody=0;strokeColor=inherit;top=0;left=0;bottom=0;right=0;collapsible=0;dropTarget=0;fillColor=none;points=[[0,0.5],[1,0.5]];portConstraint=eastwest;fontSize=16;" parent="TFH7p9IeiASmlbd_Yw0B-2" vertex="1">
          <mxGeometry width="211" height="19" as="geometry" />
        </mxCell>
        <mxCell id="TFH7p9IeiASmlbd_Yw0B-4" value="Event No." style="shape=partialRectangle;html=1;whiteSpace=wrap;connectable=0;strokeColor=inherit;overflow=hidden;fillColor=none;top=0;left=0;bottom=0;right=0;pointerEvents=1;fontSize=9;align=center;" parent="TFH7p9IeiASmlbd_Yw0B-3" vertex="1">
          <mxGeometry width="52" height="19" as="geometry">
            <mxRectangle width="52" height="19" as="alternateBounds" />
          </mxGeometry>
        </mxCell>
        <mxCell id="TFH7p9IeiASmlbd_Yw0B-5" value="Race No." style="shape=partialRectangle;html=1;whiteSpace=wrap;connectable=0;strokeColor=inherit;overflow=hidden;fillColor=none;top=0;left=0;bottom=0;right=0;pointerEvents=1;fontSize=9;align=center;" parent="TFH7p9IeiASmlbd_Yw0B-3" vertex="1">
          <mxGeometry x="52" width="54" height="19" as="geometry">
            <mxRectangle width="54" height="19" as="alternateBounds" />
          </mxGeometry>
        </mxCell>
        <mxCell id="TFH7p9IeiASmlbd_Yw0B-6" value="Horse No." style="shape=partialRectangle;html=1;whiteSpace=wrap;connectable=0;strokeColor=inherit;overflow=hidden;fillColor=none;top=0;left=0;bottom=0;right=0;pointerEvents=1;fontSize=9;align=center;" parent="TFH7p9IeiASmlbd_Yw0B-3" vertex="1">
          <mxGeometry x="106" width="53" height="19" as="geometry">
            <mxRectangle width="53" height="19" as="alternateBounds" />
          </mxGeometry>
        </mxCell>
        <mxCell id="ctcne0S49kV5touWlaR7-1" value="Ref No." style="shape=partialRectangle;html=1;whiteSpace=wrap;connectable=0;strokeColor=inherit;overflow=hidden;fillColor=none;top=0;left=0;bottom=0;right=0;pointerEvents=1;fontSize=9;align=center;" parent="TFH7p9IeiASmlbd_Yw0B-3" vertex="1">
          <mxGeometry x="159" width="52" height="19" as="geometry">
            <mxRectangle width="52" height="19" as="alternateBounds" />
          </mxGeometry>
        </mxCell>
        <mxCell id="TFH7p9IeiASmlbd_Yw0B-7" value="" style="shape=tableRow;horizontal=0;startSize=0;swimlaneHead=0;swimlaneBody=0;strokeColor=inherit;top=0;left=0;bottom=0;right=0;collapsible=0;dropTarget=0;fillColor=none;points=[[0,0.5],[1,0.5]];portConstraint=eastwest;fontSize=16;" parent="TFH7p9IeiASmlbd_Yw0B-2" vertex="1">
          <mxGeometry y="19" width="211" height="17" as="geometry" />
        </mxCell>
        <mxCell id="TFH7p9IeiASmlbd_Yw0B-8" value="1" style="shape=partialRectangle;html=1;whiteSpace=wrap;connectable=0;strokeColor=inherit;overflow=hidden;fillColor=none;top=0;left=0;bottom=0;right=0;pointerEvents=1;fontSize=9;align=center;" parent="TFH7p9IeiASmlbd_Yw0B-7" vertex="1">
          <mxGeometry width="52" height="17" as="geometry">
            <mxRectangle width="52" height="17" as="alternateBounds" />
          </mxGeometry>
        </mxCell>
        <mxCell id="TFH7p9IeiASmlbd_Yw0B-9" value="7" style="shape=partialRectangle;html=1;whiteSpace=wrap;connectable=0;strokeColor=inherit;overflow=hidden;fillColor=none;top=0;left=0;bottom=0;right=0;pointerEvents=1;fontSize=9;align=center;" parent="TFH7p9IeiASmlbd_Yw0B-7" vertex="1">
          <mxGeometry x="52" width="54" height="17" as="geometry">
            <mxRectangle width="54" height="17" as="alternateBounds" />
          </mxGeometry>
        </mxCell>
        <mxCell id="TFH7p9IeiASmlbd_Yw0B-10" value="5" style="shape=partialRectangle;html=1;whiteSpace=wrap;connectable=0;strokeColor=inherit;overflow=hidden;fillColor=none;top=0;left=0;bottom=0;right=0;pointerEvents=1;fontSize=9;align=center;" parent="TFH7p9IeiASmlbd_Yw0B-7" vertex="1">
          <mxGeometry x="106" width="53" height="17" as="geometry">
            <mxRectangle width="53" height="17" as="alternateBounds" />
          </mxGeometry>
        </mxCell>
        <mxCell id="ctcne0S49kV5touWlaR7-2" value="00012" style="shape=partialRectangle;html=1;whiteSpace=wrap;connectable=0;strokeColor=inherit;overflow=hidden;fillColor=none;top=0;left=0;bottom=0;right=0;pointerEvents=1;fontSize=9;align=center;" parent="TFH7p9IeiASmlbd_Yw0B-7" vertex="1">
          <mxGeometry x="159" width="52" height="17" as="geometry">
            <mxRectangle width="52" height="17" as="alternateBounds" />
          </mxGeometry>
        </mxCell>
        <mxCell id="TFH7p9IeiASmlbd_Yw0B-11" value="" style="shape=tableRow;horizontal=0;startSize=0;swimlaneHead=0;swimlaneBody=0;strokeColor=inherit;top=0;left=0;bottom=0;right=0;collapsible=0;dropTarget=0;fillColor=none;points=[[0,0.5],[1,0.5]];portConstraint=eastwest;fontSize=16;" parent="TFH7p9IeiASmlbd_Yw0B-2" vertex="1">
          <mxGeometry y="36" width="211" height="16" as="geometry" />
        </mxCell>
        <mxCell id="TFH7p9IeiASmlbd_Yw0B-12" value="1" style="shape=partialRectangle;html=1;whiteSpace=wrap;connectable=0;strokeColor=inherit;overflow=hidden;fillColor=none;top=0;left=0;bottom=0;right=0;pointerEvents=1;fontSize=9;align=center;" parent="TFH7p9IeiASmlbd_Yw0B-11" vertex="1">
          <mxGeometry width="52" height="16" as="geometry">
            <mxRectangle width="52" height="16" as="alternateBounds" />
          </mxGeometry>
        </mxCell>
        <mxCell id="TFH7p9IeiASmlbd_Yw0B-13" value="4" style="shape=partialRectangle;html=1;whiteSpace=wrap;connectable=0;strokeColor=inherit;overflow=hidden;fillColor=none;top=0;left=0;bottom=0;right=0;pointerEvents=1;fontSize=9;align=center;" parent="TFH7p9IeiASmlbd_Yw0B-11" vertex="1">
          <mxGeometry x="52" width="54" height="16" as="geometry">
            <mxRectangle width="54" height="16" as="alternateBounds" />
          </mxGeometry>
        </mxCell>
        <mxCell id="TFH7p9IeiASmlbd_Yw0B-14" value="11" style="shape=partialRectangle;html=1;whiteSpace=wrap;connectable=0;strokeColor=inherit;overflow=hidden;fillColor=none;top=0;left=0;bottom=0;right=0;pointerEvents=1;fontSize=9;align=center;" parent="TFH7p9IeiASmlbd_Yw0B-11" vertex="1">
          <mxGeometry x="106" width="53" height="16" as="geometry">
            <mxRectangle width="53" height="16" as="alternateBounds" />
          </mxGeometry>
        </mxCell>
        <mxCell id="ctcne0S49kV5touWlaR7-3" value="00088" style="shape=partialRectangle;html=1;whiteSpace=wrap;connectable=0;strokeColor=inherit;overflow=hidden;fillColor=none;top=0;left=0;bottom=0;right=0;pointerEvents=1;fontSize=9;align=center;" parent="TFH7p9IeiASmlbd_Yw0B-11" vertex="1">
          <mxGeometry x="159" width="52" height="16" as="geometry">
            <mxRectangle width="52" height="16" as="alternateBounds" />
          </mxGeometry>
        </mxCell>
        <mxCell id="TFH7p9IeiASmlbd_Yw0B-17" style="shape=tableRow;horizontal=0;startSize=0;swimlaneHead=0;swimlaneBody=0;strokeColor=inherit;top=0;left=0;bottom=0;right=0;collapsible=0;dropTarget=0;fillColor=none;points=[[0,0.5],[1,0.5]];portConstraint=eastwest;fontSize=16;" parent="TFH7p9IeiASmlbd_Yw0B-2" vertex="1">
          <mxGeometry y="52" width="211" height="16" as="geometry" />
        </mxCell>
        <mxCell id="TFH7p9IeiASmlbd_Yw0B-18" value="2" style="shape=partialRectangle;html=1;whiteSpace=wrap;connectable=0;strokeColor=inherit;overflow=hidden;fillColor=none;top=0;left=0;bottom=0;right=0;pointerEvents=1;fontSize=9;align=center;" parent="TFH7p9IeiASmlbd_Yw0B-17" vertex="1">
          <mxGeometry width="52" height="16" as="geometry">
            <mxRectangle width="52" height="16" as="alternateBounds" />
          </mxGeometry>
        </mxCell>
        <mxCell id="TFH7p9IeiASmlbd_Yw0B-19" value="1" style="shape=partialRectangle;html=1;whiteSpace=wrap;connectable=0;strokeColor=inherit;overflow=hidden;fillColor=none;top=0;left=0;bottom=0;right=0;pointerEvents=1;fontSize=9;align=center;" parent="TFH7p9IeiASmlbd_Yw0B-17" vertex="1">
          <mxGeometry x="52" width="54" height="16" as="geometry">
            <mxRectangle width="54" height="16" as="alternateBounds" />
          </mxGeometry>
        </mxCell>
        <mxCell id="TFH7p9IeiASmlbd_Yw0B-20" value="1" style="shape=partialRectangle;html=1;whiteSpace=wrap;connectable=0;strokeColor=inherit;overflow=hidden;fillColor=none;top=0;left=0;bottom=0;right=0;pointerEvents=1;fontSize=9;align=center;" parent="TFH7p9IeiASmlbd_Yw0B-17" vertex="1">
          <mxGeometry x="106" width="53" height="16" as="geometry">
            <mxRectangle width="53" height="16" as="alternateBounds" />
          </mxGeometry>
        </mxCell>
        <mxCell id="ctcne0S49kV5touWlaR7-4" value="00045" style="shape=partialRectangle;html=1;whiteSpace=wrap;connectable=0;strokeColor=inherit;overflow=hidden;fillColor=none;top=0;left=0;bottom=0;right=0;pointerEvents=1;fontSize=9;align=center;" parent="TFH7p9IeiASmlbd_Yw0B-17" vertex="1">
          <mxGeometry x="159" width="52" height="16" as="geometry">
            <mxRectangle width="52" height="16" as="alternateBounds" />
          </mxGeometry>
        </mxCell>
        <mxCell id="TFH7p9IeiASmlbd_Yw0B-21" style="shape=tableRow;horizontal=0;startSize=0;swimlaneHead=0;swimlaneBody=0;strokeColor=inherit;top=0;left=0;bottom=0;right=0;collapsible=0;dropTarget=0;fillColor=none;points=[[0,0.5],[1,0.5]];portConstraint=eastwest;fontSize=16;" parent="TFH7p9IeiASmlbd_Yw0B-2" vertex="1">
          <mxGeometry y="68" width="211" height="16" as="geometry" />
        </mxCell>
        <mxCell id="TFH7p9IeiASmlbd_Yw0B-22" value="1" style="shape=partialRectangle;html=1;whiteSpace=wrap;connectable=0;strokeColor=inherit;overflow=hidden;fillColor=none;top=0;left=0;bottom=0;right=0;pointerEvents=1;fontSize=9;align=center;" parent="TFH7p9IeiASmlbd_Yw0B-21" vertex="1">
          <mxGeometry width="52" height="16" as="geometry">
            <mxRectangle width="52" height="16" as="alternateBounds" />
          </mxGeometry>
        </mxCell>
        <mxCell id="TFH7p9IeiASmlbd_Yw0B-23" value="2" style="shape=partialRectangle;html=1;whiteSpace=wrap;connectable=0;strokeColor=inherit;overflow=hidden;fillColor=none;top=0;left=0;bottom=0;right=0;pointerEvents=1;fontSize=9;align=center;" parent="TFH7p9IeiASmlbd_Yw0B-21" vertex="1">
          <mxGeometry x="52" width="54" height="16" as="geometry">
            <mxRectangle width="54" height="16" as="alternateBounds" />
          </mxGeometry>
        </mxCell>
        <mxCell id="TFH7p9IeiASmlbd_Yw0B-24" value="6" style="shape=partialRectangle;html=1;whiteSpace=wrap;connectable=0;strokeColor=inherit;overflow=hidden;fillColor=none;top=0;left=0;bottom=0;right=0;pointerEvents=1;fontSize=9;align=center;" parent="TFH7p9IeiASmlbd_Yw0B-21" vertex="1">
          <mxGeometry x="106" width="53" height="16" as="geometry">
            <mxRectangle width="53" height="16" as="alternateBounds" />
          </mxGeometry>
        </mxCell>
        <mxCell id="ctcne0S49kV5touWlaR7-5" value="00101" style="shape=partialRectangle;html=1;whiteSpace=wrap;connectable=0;strokeColor=inherit;overflow=hidden;fillColor=none;top=0;left=0;bottom=0;right=0;pointerEvents=1;fontSize=9;align=center;" parent="TFH7p9IeiASmlbd_Yw0B-21" vertex="1">
          <mxGeometry x="159" width="52" height="16" as="geometry">
            <mxRectangle width="52" height="16" as="alternateBounds" />
          </mxGeometry>
        </mxCell>
        <mxCell id="TFH7p9IeiASmlbd_Yw0B-25" style="shape=tableRow;horizontal=0;startSize=0;swimlaneHead=0;swimlaneBody=0;strokeColor=inherit;top=0;left=0;bottom=0;right=0;collapsible=0;dropTarget=0;fillColor=none;points=[[0,0.5],[1,0.5]];portConstraint=eastwest;fontSize=16;" parent="TFH7p9IeiASmlbd_Yw0B-2" vertex="1">
          <mxGeometry y="84" width="211" height="17" as="geometry" />
        </mxCell>
        <mxCell id="TFH7p9IeiASmlbd_Yw0B-26" value="2" style="shape=partialRectangle;html=1;whiteSpace=wrap;connectable=0;strokeColor=inherit;overflow=hidden;fillColor=none;top=0;left=0;bottom=0;right=0;pointerEvents=1;fontSize=9;align=center;" parent="TFH7p9IeiASmlbd_Yw0B-25" vertex="1">
          <mxGeometry width="52" height="17" as="geometry">
            <mxRectangle width="52" height="17" as="alternateBounds" />
          </mxGeometry>
        </mxCell>
        <mxCell id="TFH7p9IeiASmlbd_Yw0B-27" value="2" style="shape=partialRectangle;html=1;whiteSpace=wrap;connectable=0;strokeColor=inherit;overflow=hidden;fillColor=none;top=0;left=0;bottom=0;right=0;pointerEvents=1;fontSize=9;align=center;" parent="TFH7p9IeiASmlbd_Yw0B-25" vertex="1">
          <mxGeometry x="52" width="54" height="17" as="geometry">
            <mxRectangle width="54" height="17" as="alternateBounds" />
          </mxGeometry>
        </mxCell>
        <mxCell id="TFH7p9IeiASmlbd_Yw0B-28" value="12" style="shape=partialRectangle;html=1;whiteSpace=wrap;connectable=0;strokeColor=inherit;overflow=hidden;fillColor=none;top=0;left=0;bottom=0;right=0;pointerEvents=1;fontSize=9;align=center;" parent="TFH7p9IeiASmlbd_Yw0B-25" vertex="1">
          <mxGeometry x="106" width="53" height="17" as="geometry">
            <mxRectangle width="53" height="17" as="alternateBounds" />
          </mxGeometry>
        </mxCell>
        <mxCell id="ctcne0S49kV5touWlaR7-6" value="00052" style="shape=partialRectangle;html=1;whiteSpace=wrap;connectable=0;strokeColor=inherit;overflow=hidden;fillColor=none;top=0;left=0;bottom=0;right=0;pointerEvents=1;fontSize=9;align=center;" parent="TFH7p9IeiASmlbd_Yw0B-25" vertex="1">
          <mxGeometry x="159" width="52" height="17" as="geometry">
            <mxRectangle width="52" height="17" as="alternateBounds" />
          </mxGeometry>
        </mxCell>
        <mxCell id="TFH7p9IeiASmlbd_Yw0B-29" style="shape=tableRow;horizontal=0;startSize=0;swimlaneHead=0;swimlaneBody=0;strokeColor=inherit;top=0;left=0;bottom=0;right=0;collapsible=0;dropTarget=0;fillColor=none;points=[[0,0.5],[1,0.5]];portConstraint=eastwest;fontSize=16;" parent="TFH7p9IeiASmlbd_Yw0B-2" vertex="1">
          <mxGeometry y="101" width="211" height="14" as="geometry" />
        </mxCell>
        <mxCell id="TFH7p9IeiASmlbd_Yw0B-30" value="2" style="shape=partialRectangle;html=1;whiteSpace=wrap;connectable=0;strokeColor=inherit;overflow=hidden;fillColor=none;top=0;left=0;bottom=0;right=0;pointerEvents=1;fontSize=9;align=center;" parent="TFH7p9IeiASmlbd_Yw0B-29" vertex="1">
          <mxGeometry width="52" height="14" as="geometry">
            <mxRectangle width="52" height="14" as="alternateBounds" />
          </mxGeometry>
        </mxCell>
        <mxCell id="TFH7p9IeiASmlbd_Yw0B-31" value="8" style="shape=partialRectangle;html=1;whiteSpace=wrap;connectable=0;strokeColor=inherit;overflow=hidden;fillColor=none;top=0;left=0;bottom=0;right=0;pointerEvents=1;fontSize=9;align=center;" parent="TFH7p9IeiASmlbd_Yw0B-29" vertex="1">
          <mxGeometry x="52" width="54" height="14" as="geometry">
            <mxRectangle width="54" height="14" as="alternateBounds" />
          </mxGeometry>
        </mxCell>
        <mxCell id="TFH7p9IeiASmlbd_Yw0B-32" value="3" style="shape=partialRectangle;html=1;whiteSpace=wrap;connectable=0;strokeColor=inherit;overflow=hidden;fillColor=none;top=0;left=0;bottom=0;right=0;pointerEvents=1;fontSize=9;align=center;" parent="TFH7p9IeiASmlbd_Yw0B-29" vertex="1">
          <mxGeometry x="106" width="53" height="14" as="geometry">
            <mxRectangle width="53" height="14" as="alternateBounds" />
          </mxGeometry>
        </mxCell>
        <mxCell id="ctcne0S49kV5touWlaR7-7" value="00098" style="shape=partialRectangle;html=1;whiteSpace=wrap;connectable=0;strokeColor=inherit;overflow=hidden;fillColor=none;top=0;left=0;bottom=0;right=0;pointerEvents=1;fontSize=9;align=center;" parent="TFH7p9IeiASmlbd_Yw0B-29" vertex="1">
          <mxGeometry x="159" width="52" height="14" as="geometry">
            <mxRectangle width="52" height="14" as="alternateBounds" />
          </mxGeometry>
        </mxCell>
        <mxCell id="TFH7p9IeiASmlbd_Yw0B-33" style="shape=tableRow;horizontal=0;startSize=0;swimlaneHead=0;swimlaneBody=0;strokeColor=inherit;top=0;left=0;bottom=0;right=0;collapsible=0;dropTarget=0;fillColor=none;points=[[0,0.5],[1,0.5]];portConstraint=eastwest;fontSize=16;" parent="TFH7p9IeiASmlbd_Yw0B-2" vertex="1">
          <mxGeometry y="115" width="211" height="17" as="geometry" />
        </mxCell>
        <mxCell id="TFH7p9IeiASmlbd_Yw0B-34" value="1" style="shape=partialRectangle;html=1;whiteSpace=wrap;connectable=0;strokeColor=inherit;overflow=hidden;fillColor=none;top=0;left=0;bottom=0;right=0;pointerEvents=1;fontSize=9;align=center;" parent="TFH7p9IeiASmlbd_Yw0B-33" vertex="1">
          <mxGeometry width="52" height="17" as="geometry">
            <mxRectangle width="52" height="17" as="alternateBounds" />
          </mxGeometry>
        </mxCell>
        <mxCell id="TFH7p9IeiASmlbd_Yw0B-35" value="5" style="shape=partialRectangle;html=1;whiteSpace=wrap;connectable=0;strokeColor=inherit;overflow=hidden;fillColor=none;top=0;left=0;bottom=0;right=0;pointerEvents=1;fontSize=9;align=center;" parent="TFH7p9IeiASmlbd_Yw0B-33" vertex="1">
          <mxGeometry x="52" width="54" height="17" as="geometry">
            <mxRectangle width="54" height="17" as="alternateBounds" />
          </mxGeometry>
        </mxCell>
        <mxCell id="TFH7p9IeiASmlbd_Yw0B-36" value="10" style="shape=partialRectangle;html=1;whiteSpace=wrap;connectable=0;strokeColor=inherit;overflow=hidden;fillColor=none;top=0;left=0;bottom=0;right=0;pointerEvents=1;fontSize=9;align=center;" parent="TFH7p9IeiASmlbd_Yw0B-33" vertex="1">
          <mxGeometry x="106" width="53" height="17" as="geometry">
            <mxRectangle width="53" height="17" as="alternateBounds" />
          </mxGeometry>
        </mxCell>
        <mxCell id="ctcne0S49kV5touWlaR7-8" value="00023" style="shape=partialRectangle;html=1;whiteSpace=wrap;connectable=0;strokeColor=inherit;overflow=hidden;fillColor=none;top=0;left=0;bottom=0;right=0;pointerEvents=1;fontSize=9;align=center;" parent="TFH7p9IeiASmlbd_Yw0B-33" vertex="1">
          <mxGeometry x="159" width="52" height="17" as="geometry">
            <mxRectangle width="52" height="17" as="alternateBounds" />
          </mxGeometry>
        </mxCell>
        <mxCell id="TFH7p9IeiASmlbd_Yw0B-37" style="shape=tableRow;horizontal=0;startSize=0;swimlaneHead=0;swimlaneBody=0;strokeColor=inherit;top=0;left=0;bottom=0;right=0;collapsible=0;dropTarget=0;fillColor=none;points=[[0,0.5],[1,0.5]];portConstraint=eastwest;fontSize=16;" parent="TFH7p9IeiASmlbd_Yw0B-2" vertex="1">
          <mxGeometry y="132" width="211" height="16" as="geometry" />
        </mxCell>
        <mxCell id="TFH7p9IeiASmlbd_Yw0B-38" value="1" style="shape=partialRectangle;html=1;whiteSpace=wrap;connectable=0;strokeColor=inherit;overflow=hidden;fillColor=none;top=0;left=0;bottom=0;right=0;pointerEvents=1;fontSize=9;align=center;" parent="TFH7p9IeiASmlbd_Yw0B-37" vertex="1">
          <mxGeometry width="52" height="16" as="geometry">
            <mxRectangle width="52" height="16" as="alternateBounds" />
          </mxGeometry>
        </mxCell>
        <mxCell id="TFH7p9IeiASmlbd_Yw0B-39" value="12" style="shape=partialRectangle;html=1;whiteSpace=wrap;connectable=0;strokeColor=inherit;overflow=hidden;fillColor=none;top=0;left=0;bottom=0;right=0;pointerEvents=1;fontSize=9;align=center;" parent="TFH7p9IeiASmlbd_Yw0B-37" vertex="1">
          <mxGeometry x="52" width="54" height="16" as="geometry">
            <mxRectangle width="54" height="16" as="alternateBounds" />
          </mxGeometry>
        </mxCell>
        <mxCell id="TFH7p9IeiASmlbd_Yw0B-40" value="6" style="shape=partialRectangle;html=1;whiteSpace=wrap;connectable=0;strokeColor=inherit;overflow=hidden;fillColor=none;top=0;left=0;bottom=0;right=0;pointerEvents=1;fontSize=9;align=center;" parent="TFH7p9IeiASmlbd_Yw0B-37" vertex="1">
          <mxGeometry x="106" width="53" height="16" as="geometry">
            <mxRectangle width="53" height="16" as="alternateBounds" />
          </mxGeometry>
        </mxCell>
        <mxCell id="ctcne0S49kV5touWlaR7-9" value="00112" style="shape=partialRectangle;html=1;whiteSpace=wrap;connectable=0;strokeColor=inherit;overflow=hidden;fillColor=none;top=0;left=0;bottom=0;right=0;pointerEvents=1;fontSize=9;align=center;" parent="TFH7p9IeiASmlbd_Yw0B-37" vertex="1">
          <mxGeometry x="159" width="52" height="16" as="geometry">
            <mxRectangle width="52" height="16" as="alternateBounds" />
          </mxGeometry>
        </mxCell>
        <mxCell id="TFH7p9IeiASmlbd_Yw0B-41" style="shape=tableRow;horizontal=0;startSize=0;swimlaneHead=0;swimlaneBody=0;strokeColor=inherit;top=0;left=0;bottom=0;right=0;collapsible=0;dropTarget=0;fillColor=none;points=[[0,0.5],[1,0.5]];portConstraint=eastwest;fontSize=16;" parent="TFH7p9IeiASmlbd_Yw0B-2" vertex="1">
          <mxGeometry y="148" width="211" height="16" as="geometry" />
        </mxCell>
        <mxCell id="TFH7p9IeiASmlbd_Yw0B-42" value="1" style="shape=partialRectangle;html=1;whiteSpace=wrap;connectable=0;strokeColor=inherit;overflow=hidden;fillColor=none;top=0;left=0;bottom=0;right=0;pointerEvents=1;fontSize=9;align=center;" parent="TFH7p9IeiASmlbd_Yw0B-41" vertex="1">
          <mxGeometry width="52" height="16" as="geometry">
            <mxRectangle width="52" height="16" as="alternateBounds" />
          </mxGeometry>
        </mxCell>
        <mxCell id="TFH7p9IeiASmlbd_Yw0B-43" value="3" style="shape=partialRectangle;html=1;whiteSpace=wrap;connectable=0;strokeColor=inherit;overflow=hidden;fillColor=none;top=0;left=0;bottom=0;right=0;pointerEvents=1;fontSize=9;align=center;" parent="TFH7p9IeiASmlbd_Yw0B-41" vertex="1">
          <mxGeometry x="52" width="54" height="16" as="geometry">
            <mxRectangle width="54" height="16" as="alternateBounds" />
          </mxGeometry>
        </mxCell>
        <mxCell id="TFH7p9IeiASmlbd_Yw0B-44" value="5" style="shape=partialRectangle;html=1;whiteSpace=wrap;connectable=0;strokeColor=inherit;overflow=hidden;fillColor=none;top=0;left=0;bottom=0;right=0;pointerEvents=1;fontSize=9;align=center;" parent="TFH7p9IeiASmlbd_Yw0B-41" vertex="1">
          <mxGeometry x="106" width="53" height="16" as="geometry">
            <mxRectangle width="53" height="16" as="alternateBounds" />
          </mxGeometry>
        </mxCell>
        <mxCell id="ctcne0S49kV5touWlaR7-10" value="00085" style="shape=partialRectangle;html=1;whiteSpace=wrap;connectable=0;strokeColor=inherit;overflow=hidden;fillColor=none;top=0;left=0;bottom=0;right=0;pointerEvents=1;fontSize=9;align=center;" parent="TFH7p9IeiASmlbd_Yw0B-41" vertex="1">
          <mxGeometry x="159" width="52" height="16" as="geometry">
            <mxRectangle width="52" height="16" as="alternateBounds" />
          </mxGeometry>
        </mxCell>
        <mxCell id="TFH7p9IeiASmlbd_Yw0B-45" style="shape=tableRow;horizontal=0;startSize=0;swimlaneHead=0;swimlaneBody=0;strokeColor=inherit;top=0;left=0;bottom=0;right=0;collapsible=0;dropTarget=0;fillColor=none;points=[[0,0.5],[1,0.5]];portConstraint=eastwest;fontSize=16;" parent="TFH7p9IeiASmlbd_Yw0B-2" vertex="1">
          <mxGeometry y="164" width="211" height="16" as="geometry" />
        </mxCell>
        <mxCell id="TFH7p9IeiASmlbd_Yw0B-46" value="2" style="shape=partialRectangle;html=1;whiteSpace=wrap;connectable=0;strokeColor=inherit;overflow=hidden;fillColor=none;top=0;left=0;bottom=0;right=0;pointerEvents=1;fontSize=9;align=center;" parent="TFH7p9IeiASmlbd_Yw0B-45" vertex="1">
          <mxGeometry width="52" height="16" as="geometry">
            <mxRectangle width="52" height="16" as="alternateBounds" />
          </mxGeometry>
        </mxCell>
        <mxCell id="TFH7p9IeiASmlbd_Yw0B-47" value="6" style="shape=partialRectangle;html=1;whiteSpace=wrap;connectable=0;strokeColor=inherit;overflow=hidden;fillColor=none;top=0;left=0;bottom=0;right=0;pointerEvents=1;fontSize=9;align=center;" parent="TFH7p9IeiASmlbd_Yw0B-45" vertex="1">
          <mxGeometry x="52" width="54" height="16" as="geometry">
            <mxRectangle width="54" height="16" as="alternateBounds" />
          </mxGeometry>
        </mxCell>
        <mxCell id="TFH7p9IeiASmlbd_Yw0B-48" value="8" style="shape=partialRectangle;html=1;whiteSpace=wrap;connectable=0;strokeColor=inherit;overflow=hidden;fillColor=none;top=0;left=0;bottom=0;right=0;pointerEvents=1;fontSize=9;align=center;" parent="TFH7p9IeiASmlbd_Yw0B-45" vertex="1">
          <mxGeometry x="106" width="53" height="16" as="geometry">
            <mxRectangle width="53" height="16" as="alternateBounds" />
          </mxGeometry>
        </mxCell>
        <mxCell id="ctcne0S49kV5touWlaR7-11" value="00077" style="shape=partialRectangle;html=1;whiteSpace=wrap;connectable=0;strokeColor=inherit;overflow=hidden;fillColor=none;top=0;left=0;bottom=0;right=0;pointerEvents=1;fontSize=9;align=center;" parent="TFH7p9IeiASmlbd_Yw0B-45" vertex="1">
          <mxGeometry x="159" width="52" height="16" as="geometry">
            <mxRectangle width="52" height="16" as="alternateBounds" />
          </mxGeometry>
        </mxCell>
        <mxCell id="TFH7p9IeiASmlbd_Yw0B-53" value="" style="shape=image;verticalLabelPosition=bottom;labelBackgroundColor=default;verticalAlign=top;aspect=fixed;imageAspect=0;image=data:image/png,iVBORw0KGgoAAAANSUhEUgAAAJYAAACWCAYAAAA8AXHiAAAAAXNSR0IArs4c6QAAAARnQU1BAACxjwv8YQUAAAAJcEhZcwAAD2EAAA9hAag/p2kAABIlSURBVHhe7Z0HrC1VFYafvfeKgj3GqGCLXTT2SBBjDUowRtQYSyQag4UYRY3RKGosaDREjSU2jGLDriAiYo2AsVcUUOy9/h/3/XG9/fa5d2bOmTlzZtaX/Hn33XLOnD1r9l57rbX33pUkSZIkSZIkSZIkSZIkSZIkSZIk/XIx6UnSX6U/SE+RLiElSWcwqtdI/yl0nnQ9KUk6cWcJQ/pvkI2LHuz6UpK05rNSaVjRwP4p7S8lSWMYBn8llcYUDY2v/y3tKyVJIy4v/VmyMSEPfe+S4vf/IV1TSpIdua70L8nG82kpclEpGtfvpSTZkRtL0XAuLpVcUoq/83YpSbZlPykazSKuJMXfIzyRJAu5moRjvpNhwRWlaFwHSklS5bISTnkTwwKc/Whc15KSZC9I2/xFampYwMzQv4/jT6+XJHvArO+3kg0FR70JR0n+G3q8y0jrgl6X2e0tpFtJN5WuLfH9i0jJmviKZCO5B99oCMlq/90fJYbJvrmURAqKycMXpN9IcSi38BtJR5Hv/KL0UukO0hWkZCAeIfmGYCxNobcj3eO/JdB6G6kPSIa/WMJY/H5NVGYTuMaPSHeUMNKkR64hxZvRBm54/Fv0QGlV3Ej6uBRf38bSVX6dX0rMbGuxu2QF0PMwlLnBbym14flSvOF8/QRpGa4svVGKoZBSP5GeJt1cwsfCyBkm+bs/Sf69aFTxGq1jpaw96wkMwQ3NcNOW06R4s9DxUhfnmVxlbchjyOYhaAO//zjJr7HIwK4jJT3ArM6NjJhhtYWhJb4G+p7EUNuUA6QY/sDnW9VQRVjEPVk0LN6v6Ww46cDTJd9Q4lNdGhtDKm8cDv7dpZ1gSPOQzPv35VxfVYo94hCz2VlDbVb0aZiq8722vFfi721cNjCc8EVDDjf3JInqifvzjSVg+KOX2+naM8Y1IOUMkR6oi2NLDxVfx8JwnyWVN5XekVhTVyea1yOXySzyttIDpIOkW0s3kQiaWiTeCZ4mA3NvKfY0ROYvJ7WFm2eDKnsvesNVpYLooegJiaG9QjpR+qTEQ3GuhJ+GH/X33eLrs6XHSBghpUM5HA4AjXyBFA0BP6mNEx6heLBmXOjN0rK+FBOPMqVED4bBPVYqQxa1EAZD8EOkzHv2ADeYtIcdcBQNgRuCg90FjDU6zPF16UXeKl1d6jNYifE9Q/I11PQ3ifAE15IsCU/3zaSaQUUDQMzaloFApnuM2utjfPQyV5H65hjJ7xuvAZF/PFS6tJR0gKeY6LXr3uPNtvj+DXf/i1YB1Qf0VH7N+F6IofeF0j5S37M3DKh2DegMiWtIWsDNPVWKjVpr3L4Sy8BssIx9le//AYnZXtuoe1vcFr4Wf83wyCw3c4o7wA26vRTzg+VNpQfr06BqUHFQXo//j7jxhAv6NjA+e+393yRlmGIB9BDkBcuhLzYgvcM6YRLhYbJ2fdRh9T08vUGK72mdLg3h/20UBBDjIlTfNN84krxjgp6pzO35WnGu2RGnz5qquILJ74soLsxa/93gT/1Aig1l4SiXcaAxgfFwjfGa/TlIfPfZw9I7xfby+xKEnT3Enn4n1RroO9KmEIsK4+fA6Ig9dXWuySny2veUGGLL5DsPXfmelATNFqbpFL45MOmGceM8TNpEXFEaPwsijdMlNUNs7QQJN+Gn0pkSqZ44zDIsu7b+PdJsU0A8hQ+SeJrjTfCNIDG7yXBjbVBR50sYSlvKyg5ETvGuUt+z0I2BCgEc21pODE3pacOR5jPFhwaDIJzSJbBaW/HzGYlS6VlDnOX1khslNjhD4hSfPqoxys/KQ/U8qUsZDrX08bUQ4Q+qW2cJT9WiSgIaa8qQ07MRRLHUq0vJz8uk2usdJs1qaCSugvHUGuO5UgmN03cObh3E/KP1c6lLOQw1XuVrISLwXcq2Nw4SxL+W+NBlF15236wEPk6i/oiaK+Ix6460rxpmjWWPTbilyya9hDBq7cq+rZNO7xCjWhSdLtMe9FI4ov5dNxI6QpoSd5Pi50OsgqY8qC20G39fti+5y0mW1bABxqIYVe1pIqUTww/OF1qPl7osnhgrrMaJnw8xVN5Faot7rlIfliZV9cB0uuZPMF1e5FxSFRmNyWCE50hUOxzONyZEbSijDYiyt4WAqdsuCkd/Ev4q+w2UgU++xo/YDvKFMbZVwnaQr5WmOOsp2wrjarOzjuHhjK/l13uotLFww1lzVyt5+aC0E8wctzOsqVMO/fy/y7DIhIi/L41rI7MZdOmUEMeGsThcqQlk6mPjlvA04vROeSodF3Qgen7ygm2pLcrgtTdq/y3GdrLp5QdBt5OaQpaeMlv/bXTwGSapdOD7D+cbE4aHK/Y0tAm1V22JO9pYOPMbAVFjKiZ94bFB2ub8GEq/Lfm1mH4fIhFAJabl788BPmdsS3KOzJrbgMPuNosafeqHTWS9g4sbAfGEdcUHBsRGjZoT5Wdny8y2oQMqKfjb2J4MiaN1J3AEyzNuEAs7l4XZEK/lxnCDTCmG1QQ+b2xbROK6LSzXL9sSf3hU0L2y1Kg281u0U0sXeDKfLJHaeRvfmCnliRuo7eokD4nRuJh9j6bcmyeIDVz9AaNRJf1BCCe2NSMFUfs2sHrb9806Wlo7zPwo8SgvburlLk3BZ+lS/tIUkvjRuM6S2vpb5b2j11rr3qZM++O+Cda9pGQL3IMu8aY2lO3fND5oKAUvX4PU21qgp6qV1zL2J/+HHuVIqc+cXJkLJHjatn4+/j3i9NrBwaf6hVRezBRzdctCu7CKpm88Y7ZYi9lmtuxOImrwui02uygvIqlD27BJ2xCUaR/WLDaFGrj4t2jQPTDYpL+8gKQOyXPa5+UX/m8YeD+7JZQntdmvwffTYr+HQWCm4LIXa27ByTY4prfsbspteLQU7w8z9qbQ49lfRlz/IPVa5QywS7nsnKCNKGAcej1kvEeoaVnMwVI0LP629xJm55asH0nJYrwZGufjDE1Z2szxdE1g8sXvR8PaV+qVspw4WYw340DsQbEOSpel6ehCcDQaVq8VpmzCES+yz0jyFHA7MYVfVwim3CPiQ1INiiSjH0VVSjQsNhLpjVi9iUUni4nbBAw5G6zh60Dcw1oekZRT3AefRSnRsFg02wuE9uMFEuVN6sRjV5hhrbutHO6wKBQoobd6geTZPcYXDYvP0cvMsAy6JXXKtMqyB2quCq7FRsLQXBoJ/+dndtLtwFvbLctbivgmlBone0N8L7bT16WxQPl2vDZO8Cjh+zHeFbfm7CWWVWa92VI62RPqzWMbMRsbPMe2A/H6SMeVcBgUvZpr5+8jxc+zcsMqN/PKJPOe1Pa3GuPDFydfrNApsyVeqMK/wM/9+72MUn5xK9mCNXhxAa3FGYNjBGOP11keb/xOyT8zfMbedgOMFxPfdK6wQzG9uHso91Koy1ZDQxLvI9txRl4k+WeDxCjjxaA5gV/BpmdUY8asQzQqRF3a2HyqGtFf5hCpyBMl/4zztXvHb2ZNCQKDTLEfJeFHlKuDSwOy/HOcWrZj2iS4ZlT2WKRt/Lm+yzf6xm9mbRJMNFh2RiN610CrZjBNxN+ySIS82yZOZCgcoC3K3WqeI7ltlj3XsRF+M2vM3EDyHg6oZhhNFT8zU3EOE2cHwo3aOKMCZ0mzcJjTyiI/lPx5WULWO7GB0ZggKMnqX19bzUBKxc+CE85h5BgjWykdJXGCPOW4LOcnHTLmc3q6QMqJcmWqgCOxXci09E58QzQG2KUGP8HXtMh4iN1gNBgMpStMuRkaCQLiX80xJseEhJBILKFxSseanWG5dGeRIbHkHn+KIYvZXJZM1yFkgtvgB6tMRw1iWOWSIC5qaCirjT1UFLVD7GzXdll5U7qcbTN28BNZYGHD4iGMbTqIj3VfKb7pz6ShYJk42/PwvmUPdawUa4j6goj0FIluAD5lvMf0/L1TO+9uCPCHYn7LIng3ZPXqt3b/O2XeIsU25ni6QeDNYo/Rp9OLI0lvFD8oIoA59ClWBD+/v/XlpMGnih3H+6VBKPdn4FiOPqBQrtwFkK/XdawJTy4Hd0+dsr0H29BliJXPbC0ZN69FGPA6S3uJcxHLmjq0dTQsFlcMRlkisspteWqGu+7yE6os+cxTj3WxksdGhUi2D/qZ3y2VN38VECrgteIT0+UYtVXDkMxpp1PnVVI0rJ1OCFk5tf0ulz3wuyx7prpgDOUnTCDorTgAfOrE9kcvkQantnURN6ELr5bi67CYcizDDmU0XNMUg6MR2jveA7TKTYgbQ47NBW9x6GoDH4aDGOOHoecaEwyBOO5Th0qHeB8YMdYGR5r5QtoaF4ZJCYr/Ho1t4YEXeH7swv9Nm3gfUK9L6ZsQS1WiOIa3BslglpqXvz/otLYhjtm12axsE6kdcL7o/g0GhkLhmy/IPZd7LyK51Dexl5bTMvHnnFY/xmX6+0tcH9c9dZj98VmtwWeDi8C42Hg+BjWjgUXFDzDWGnF8P/uPlN1MmZrTjr81Kug+2dRru1UsfI9ejOPfxso3Ja5zsATsGmGbbd8rxGRllJWy9F4YDZUHFOvjoDPDoOyXGSBR7DEX3d1JciP3vdH/uqlVqzxbGj0YEBWJlP62PXZjHeDrOV11Jt+YOPi80ago6ht6f9RZcK5EA88h4Vwus0ePlJIV8w7JDbyWVMbARINCbFWUrJgHS25g9rLqmpraFMrqFIZE3JVkhcQhgf01h65MHRpq2KNfhQ6VkhXCih8/vYRAyoWbU4PAZ2lU7Cxjpt5TDwLFg84E8C9bKE4ZR9ejUcXd/JjBs5OOd/FLOoBP5Z6Kf3Hcp/y0Yiw2Jiuen81n56g7TiUbY3pt9NCAZO3duBgVBXybEGNbFpL8ZBKItLMXhaFNaANcgTkf1t4ZAn845/YxMKpPSHN6QsuZH3nCz0u0BYa17gMONg42AYkJcr6m55pzt49RnSfRHviY+GC4CEkDaLw49CEa8BhpDsPfdjjLYMNi+4Kp152thP2k8yUPfYjd9w6S5j6t/pQUHzaGwanPipcGoyEl41kfIvd3hrT2qsgR8Eoptg1fs5/7ulaYbwQ0DuXEsZei12IVUGbtt2r3MabYPrgG7JKcVMBfItjH0+cGw2/gSWR/zbkPffA1qTQq9hlj64Kpp7E6wY6/VD26a0f0WgT70hndWihB/MptY6Pia2rODpCSAEvv2YO8fAIpK2apPjPCucOCEB662EY2MA46WHb1+uQ4WooOKCKizMGOmevagmAn7kA0KkS7nSM9Vcr0TYCadBrMBkU57clS08Ozpw6Vr/RGbp/SqH4sHSGlUQVw0j8nudHYYY9aoixS25qgHC/FCUwUbsLZEtH1uQeH94KQARuGsOKHlT/fkJKtoK+3KygNiu/RVjyQtdNUE8FTyX4RH5VOk86S5lBKvAgO3izjdlH0XiTe8T3HvI5zFDDs4We9TqI6gbWKTKcH2ytzBDD8l3vBluJwpVMljm1hCV7SEA6aZEOSEyRyX8x0CAJOFeJRpGPK8EEp0lf4nuT+2Ms16QA+1yESTutXJVZek7UvT7PaZKjL54HxaRw1Y0LMlHm43idxvlBmG5aEBmRopDzmdInyD/KDHI025OECq4Shi5DATsMdwqCI4Z0k4X/msLdiqFygzgrHnlO+cFpZ6kS+kGFkE2Do+pJUC2yWogdj010M6n5Shlx6hPgMzio+F8eT0GsxNOLIEjQc67ZJhAHI2y2KQUVR/UqQkx6aIX/MG6xMDjaiZTM4tlQin4hRMawQpacXI1K/bseWCDnGQYxpp+GOnxOnIrxCqga/K1kj1Gdx6BCBVPYmwMCo88a4uKEYGvVI9Gr4ZkzjueF9JLCZaBwsfVlyNUbNiKKY4THcnSIdJmUedGTQgzFVZ+ZID8bNwuHFqPBVyhvKTcfPYQhl6s6hUM+U2C+L4+vYV4ph18JhxnD2kTiW7XCJ+jB6GL9HE0NCbFrHAeD4hu6dcoY3cuiJDpTwwbhxTM+9egf/BjU1AH4vqvY7TcTfUnOOsWP4RMnZnjJ9pw2GigjKdXGGCVEwNC5jJE1FD8ZwzEGi+HsMwZz2kUwQykjozU6UGC7xu0h2Y2y14bKJMFKGVHwqhkSGX3KbRMVZRZRD3EzBd2KbI06+x8+i7IThk97tAgljoedBfM33mBywzIxKVnKZR0pUco7hXKAkSZIkSZIkSZIkSZIkSbZl167/AXx3a/NCEtmlAAAAAElFTkSuQmCC;" parent="1" vertex="1">
          <mxGeometry x="1" width="53" height="53" as="geometry" />
        </mxCell>
        <mxCell id="TFH7p9IeiASmlbd_Yw0B-54" value="" style="shape=image;verticalLabelPosition=bottom;labelBackgroundColor=default;verticalAlign=top;aspect=fixed;imageAspect=0;image=data:image/png,iVBORw0KGgoAAAANSUhEUgAAAJYAAACWCAYAAAA8AXHiAAAAAXNSR0IArs4c6QAAAARnQU1BAACxjwv8YQUAAAAJcEhZcwAAD2EAAA9hAag/p2kAABIlSURBVHhe7Z0HrC1VFYafvfeKgj3GqGCLXTT2SBBjDUowRtQYSyQag4UYRY3RKGosaDREjSU2jGLDriAiYo2AsVcUUOy9/h/3/XG9/fa5d2bOmTlzZtaX/Hn33XLOnD1r9l57rbX33pUkSZIkSZIkSZIkSZIkSZIkSZIk/XIx6UnSX6U/SE+RLiElSWcwqtdI/yl0nnQ9KUk6cWcJQ/pvkI2LHuz6UpK05rNSaVjRwP4p7S8lSWMYBn8llcYUDY2v/y3tKyVJIy4v/VmyMSEPfe+S4vf/IV1TSpIdua70L8nG82kpclEpGtfvpSTZkRtL0XAuLpVcUoq/83YpSbZlPykazSKuJMXfIzyRJAu5moRjvpNhwRWlaFwHSklS5bISTnkTwwKc/Whc15KSZC9I2/xFampYwMzQv4/jT6+XJHvArO+3kg0FR70JR0n+G3q8y0jrgl6X2e0tpFtJN5WuLfH9i0jJmviKZCO5B99oCMlq/90fJYbJvrmURAqKycMXpN9IcSi38BtJR5Hv/KL0UukO0hWkZCAeIfmGYCxNobcj3eO/JdB6G6kPSIa/WMJY/H5NVGYTuMaPSHeUMNKkR64hxZvRBm54/Fv0QGlV3Ej6uBRf38bSVX6dX0rMbGuxu2QF0PMwlLnBbym14flSvOF8/QRpGa4svVGKoZBSP5GeJt1cwsfCyBkm+bs/Sf69aFTxGq1jpaw96wkMwQ3NcNOW06R4s9DxUhfnmVxlbchjyOYhaAO//zjJr7HIwK4jJT3ArM6NjJhhtYWhJb4G+p7EUNuUA6QY/sDnW9VQRVjEPVk0LN6v6Ww46cDTJd9Q4lNdGhtDKm8cDv7dpZ1gSPOQzPv35VxfVYo94hCz2VlDbVb0aZiq8722vFfi721cNjCc8EVDDjf3JInqifvzjSVg+KOX2+naM8Y1IOUMkR6oi2NLDxVfx8JwnyWVN5XekVhTVyea1yOXySzyttIDpIOkW0s3kQiaWiTeCZ4mA3NvKfY0ROYvJ7WFm2eDKnsvesNVpYLooegJiaG9QjpR+qTEQ3GuhJ+GH/X33eLrs6XHSBghpUM5HA4AjXyBFA0BP6mNEx6heLBmXOjN0rK+FBOPMqVED4bBPVYqQxa1EAZD8EOkzHv2ADeYtIcdcBQNgRuCg90FjDU6zPF16UXeKl1d6jNYifE9Q/I11PQ3ifAE15IsCU/3zaSaQUUDQMzaloFApnuM2utjfPQyV5H65hjJ7xuvAZF/PFS6tJR0gKeY6LXr3uPNtvj+DXf/i1YB1Qf0VH7N+F6IofeF0j5S37M3DKh2DegMiWtIWsDNPVWKjVpr3L4Sy8BssIx9le//AYnZXtuoe1vcFr4Wf83wyCw3c4o7wA26vRTzg+VNpQfr06BqUHFQXo//j7jxhAv6NjA+e+393yRlmGIB9BDkBcuhLzYgvcM6YRLhYbJ2fdRh9T08vUGK72mdLg3h/20UBBDjIlTfNN84krxjgp6pzO35WnGu2RGnz5qquILJ74soLsxa/93gT/1Aig1l4SiXcaAxgfFwjfGa/TlIfPfZw9I7xfby+xKEnT3Enn4n1RroO9KmEIsK4+fA6Ig9dXWuySny2veUGGLL5DsPXfmelATNFqbpFL45MOmGceM8TNpEXFEaPwsijdMlNUNs7QQJN+Gn0pkSqZ44zDIsu7b+PdJsU0A8hQ+SeJrjTfCNIDG7yXBjbVBR50sYSlvKyg5ETvGuUt+z0I2BCgEc21pODE3pacOR5jPFhwaDIJzSJbBaW/HzGYlS6VlDnOX1khslNjhD4hSfPqoxys/KQ/U8qUsZDrX08bUQ4Q+qW2cJT9WiSgIaa8qQ07MRRLHUq0vJz8uk2usdJs1qaCSugvHUGuO5UgmN03cObh3E/KP1c6lLOQw1XuVrISLwXcq2Nw4SxL+W+NBlF15236wEPk6i/oiaK+Ix6460rxpmjWWPTbilyya9hDBq7cq+rZNO7xCjWhSdLtMe9FI4ov5dNxI6QpoSd5Pi50OsgqY8qC20G39fti+5y0mW1bABxqIYVe1pIqUTww/OF1qPl7osnhgrrMaJnw8xVN5Faot7rlIfliZV9cB0uuZPMF1e5FxSFRmNyWCE50hUOxzONyZEbSijDYiyt4WAqdsuCkd/Ev4q+w2UgU++xo/YDvKFMbZVwnaQr5WmOOsp2wrjarOzjuHhjK/l13uotLFww1lzVyt5+aC0E8wctzOsqVMO/fy/y7DIhIi/L41rI7MZdOmUEMeGsThcqQlk6mPjlvA04vROeSodF3Qgen7ygm2pLcrgtTdq/y3GdrLp5QdBt5OaQpaeMlv/bXTwGSapdOD7D+cbE4aHK/Y0tAm1V22JO9pYOPMbAVFjKiZ94bFB2ub8GEq/Lfm1mH4fIhFAJabl788BPmdsS3KOzJrbgMPuNosafeqHTWS9g4sbAfGEdcUHBsRGjZoT5Wdny8y2oQMqKfjb2J4MiaN1J3AEyzNuEAs7l4XZEK/lxnCDTCmG1QQ+b2xbROK6LSzXL9sSf3hU0L2y1Kg281u0U0sXeDKfLJHaeRvfmCnliRuo7eokD4nRuJh9j6bcmyeIDVz9AaNRJf1BCCe2NSMFUfs2sHrb9806Wlo7zPwo8SgvburlLk3BZ+lS/tIUkvjRuM6S2vpb5b2j11rr3qZM++O+Cda9pGQL3IMu8aY2lO3fND5oKAUvX4PU21qgp6qV1zL2J/+HHuVIqc+cXJkLJHjatn4+/j3i9NrBwaf6hVRezBRzdctCu7CKpm88Y7ZYi9lmtuxOImrwui02uygvIqlD27BJ2xCUaR/WLDaFGrj4t2jQPTDYpL+8gKQOyXPa5+UX/m8YeD+7JZQntdmvwffTYr+HQWCm4LIXa27ByTY4prfsbspteLQU7w8z9qbQ49lfRlz/IPVa5QywS7nsnKCNKGAcej1kvEeoaVnMwVI0LP629xJm55asH0nJYrwZGufjDE1Z2szxdE1g8sXvR8PaV+qVspw4WYw340DsQbEOSpel6ehCcDQaVq8VpmzCES+yz0jyFHA7MYVfVwim3CPiQ1INiiSjH0VVSjQsNhLpjVi9iUUni4nbBAw5G6zh60Dcw1oekZRT3AefRSnRsFg02wuE9uMFEuVN6sRjV5hhrbutHO6wKBQoobd6geTZPcYXDYvP0cvMsAy6JXXKtMqyB2quCq7FRsLQXBoJ/+dndtLtwFvbLctbivgmlBone0N8L7bT16WxQPl2vDZO8Cjh+zHeFbfm7CWWVWa92VI62RPqzWMbMRsbPMe2A/H6SMeVcBgUvZpr5+8jxc+zcsMqN/PKJPOe1Pa3GuPDFydfrNApsyVeqMK/wM/9+72MUn5xK9mCNXhxAa3FGYNjBGOP11keb/xOyT8zfMbedgOMFxPfdK6wQzG9uHso91Koy1ZDQxLvI9txRl4k+WeDxCjjxaA5gV/BpmdUY8asQzQqRF3a2HyqGtFf5hCpyBMl/4zztXvHb2ZNCQKDTLEfJeFHlKuDSwOy/HOcWrZj2iS4ZlT2WKRt/Lm+yzf6xm9mbRJMNFh2RiN610CrZjBNxN+ySIS82yZOZCgcoC3K3WqeI7ltlj3XsRF+M2vM3EDyHg6oZhhNFT8zU3EOE2cHwo3aOKMCZ0mzcJjTyiI/lPx5WULWO7GB0ZggKMnqX19bzUBKxc+CE85h5BgjWykdJXGCPOW4LOcnHTLmc3q6QMqJcmWqgCOxXci09E58QzQG2KUGP8HXtMh4iN1gNBgMpStMuRkaCQLiX80xJseEhJBILKFxSseanWG5dGeRIbHkHn+KIYvZXJZM1yFkgtvgB6tMRw1iWOWSIC5qaCirjT1UFLVD7GzXdll5U7qcbTN28BNZYGHD4iGMbTqIj3VfKb7pz6ShYJk42/PwvmUPdawUa4j6goj0FIluAD5lvMf0/L1TO+9uCPCHYn7LIng3ZPXqt3b/O2XeIsU25ni6QeDNYo/Rp9OLI0lvFD8oIoA59ClWBD+/v/XlpMGnih3H+6VBKPdn4FiOPqBQrtwFkK/XdawJTy4Hd0+dsr0H29BliJXPbC0ZN69FGPA6S3uJcxHLmjq0dTQsFlcMRlkisspteWqGu+7yE6os+cxTj3WxksdGhUi2D/qZ3y2VN38VECrgteIT0+UYtVXDkMxpp1PnVVI0rJ1OCFk5tf0ulz3wuyx7prpgDOUnTCDorTgAfOrE9kcvkQantnURN6ELr5bi67CYcizDDmU0XNMUg6MR2jveA7TKTYgbQ47NBW9x6GoDH4aDGOOHoecaEwyBOO5Th0qHeB8YMdYGR5r5QtoaF4ZJCYr/Ho1t4YEXeH7swv9Nm3gfUK9L6ZsQS1WiOIa3BslglpqXvz/otLYhjtm12axsE6kdcL7o/g0GhkLhmy/IPZd7LyK51Dexl5bTMvHnnFY/xmX6+0tcH9c9dZj98VmtwWeDi8C42Hg+BjWjgUXFDzDWGnF8P/uPlN1MmZrTjr81Kug+2dRru1UsfI9ejOPfxso3Ja5zsATsGmGbbd8rxGRllJWy9F4YDZUHFOvjoDPDoOyXGSBR7DEX3d1JciP3vdH/uqlVqzxbGj0YEBWJlP62PXZjHeDrOV11Jt+YOPi80ago6ht6f9RZcK5EA88h4Vwus0ePlJIV8w7JDbyWVMbARINCbFWUrJgHS25g9rLqmpraFMrqFIZE3JVkhcQhgf01h65MHRpq2KNfhQ6VkhXCih8/vYRAyoWbU4PAZ2lU7Cxjpt5TDwLFg84E8C9bKE4ZR9ejUcXd/JjBs5OOd/FLOoBP5Z6Kf3Hcp/y0Yiw2Jiuen81n56g7TiUbY3pt9NCAZO3duBgVBXybEGNbFpL8ZBKItLMXhaFNaANcgTkf1t4ZAn845/YxMKpPSHN6QsuZH3nCz0u0BYa17gMONg42AYkJcr6m55pzt49RnSfRHviY+GC4CEkDaLw49CEa8BhpDsPfdjjLYMNi+4Kp152thP2k8yUPfYjd9w6S5j6t/pQUHzaGwanPipcGoyEl41kfIvd3hrT2qsgR8Eoptg1fs5/7ulaYbwQ0DuXEsZei12IVUGbtt2r3MabYPrgG7JKcVMBfItjH0+cGw2/gSWR/zbkPffA1qTQq9hlj64Kpp7E6wY6/VD26a0f0WgT70hndWihB/MptY6Pia2rODpCSAEvv2YO8fAIpK2apPjPCucOCEB662EY2MA46WHb1+uQ4WooOKCKizMGOmevagmAn7kA0KkS7nSM9Vcr0TYCadBrMBkU57clS08Ozpw6Vr/RGbp/SqH4sHSGlUQVw0j8nudHYYY9aoixS25qgHC/FCUwUbsLZEtH1uQeH94KQARuGsOKHlT/fkJKtoK+3KygNiu/RVjyQtdNUE8FTyX4RH5VOk86S5lBKvAgO3izjdlH0XiTe8T3HvI5zFDDs4We9TqI6gbWKTKcH2ytzBDD8l3vBluJwpVMljm1hCV7SEA6aZEOSEyRyX8x0CAJOFeJRpGPK8EEp0lf4nuT+2Ms16QA+1yESTutXJVZek7UvT7PaZKjL54HxaRw1Y0LMlHm43idxvlBmG5aEBmRopDzmdInyD/KDHI025OECq4Shi5DATsMdwqCI4Z0k4X/msLdiqFygzgrHnlO+cFpZ6kS+kGFkE2Do+pJUC2yWogdj010M6n5Shlx6hPgMzio+F8eT0GsxNOLIEjQc67ZJhAHI2y2KQUVR/UqQkx6aIX/MG6xMDjaiZTM4tlQin4hRMawQpacXI1K/bseWCDnGQYxpp+GOnxOnIrxCqga/K1kj1Gdx6BCBVPYmwMCo88a4uKEYGvVI9Gr4ZkzjueF9JLCZaBwsfVlyNUbNiKKY4THcnSIdJmUedGTQgzFVZ+ZID8bNwuHFqPBVyhvKTcfPYQhl6s6hUM+U2C+L4+vYV4ph18JhxnD2kTiW7XCJ+jB6GL9HE0NCbFrHAeD4hu6dcoY3cuiJDpTwwbhxTM+9egf/BjU1AH4vqvY7TcTfUnOOsWP4RMnZnjJ9pw2GigjKdXGGCVEwNC5jJE1FD8ZwzEGi+HsMwZz2kUwQykjozU6UGC7xu0h2Y2y14bKJMFKGVHwqhkSGX3KbRMVZRZRD3EzBd2KbI06+x8+i7IThk97tAgljoedBfM33mBywzIxKVnKZR0pUco7hXKAkSZIkSZIkSZIkSZIkSbZl167/AXx3a/NCEtmlAAAAAElFTkSuQmCC;flipH=1;" parent="1" vertex="1">
          <mxGeometry x="170" width="53" height="53" as="geometry" />
        </mxCell>
        <mxCell id="166VOAPibnbgP95NynDp-1" value="&lt;font style=&quot;font-size: 9px;&quot;&gt;&lt;span style=&quot;line-height: 107%; font-family: &amp;quot;Calibri&amp;quot;, sans-serif;&quot;&gt;This event is sanctioned by IGC license NO.948673&lt;/span&gt;&lt;/font&gt;" style="rounded=0;whiteSpace=wrap;html=1;strokeColor=none;" vertex="1" parent="1">
          <mxGeometry x="7" y="244" width="209" height="48" as="geometry" />
        </mxCell>
      </root>
    </mxGraphModel>
  </diagram>
</mxfile>
